REM DIRINDEX 1\2\6,1\2\7,1\2\8,1\2\9,1\3\10,1\3\11,1\4\12,1\4\13,1\4\14,1\5\15,1\5\16,1\5\17
REM DIRNAME folder01,folder02,folder03,folder04,folder05,folder06,folder07,folder08,folder09,folder10,folder11,folder12,folder13,folder14,folder15,folder16,folder17
TITLE ""
FILE "1400_3_sec05_0401_0415.mp3" MP3
  TRACK 01 AUDIO
    TITLE "0:"
    INDEX 01 00:00:00
  TRACK 02 AUDIO
    TITLE "15:cjc029_5231"
    INDEX 01 00:00:15
  TRACK 03 AUDIO
    TITLE "0:"
    INDEX 01 00:01:54
  TRACK 04 AUDIO
    TITLE "17:cjc029_5232"
    INDEX 01 00:02:63
  TRACK 05 AUDIO
    TITLE "0:"
    INDEX 01 00:04:17
  TRACK 06 AUDIO
    TITLE "16:cjc029_5233"
    INDEX 01 00:04:27
  TRACK 07 AUDIO
    TITLE "0:"
    INDEX 01 00:05:50
  TRACK 08 AUDIO
    TITLE "17:cjc029_5234"
    INDEX 01 00:06:33
  TRACK 09 AUDIO
    TITLE "0:"
    INDEX 01 00:09:26
  TRACK 10 AUDIO
    TITLE "16:cjc029_5235"
    INDEX 01 00:09:36
  TRACK 11 AUDIO
    TITLE "0:"
    INDEX 01 00:10:47
  TRACK 12 AUDIO
    TITLE "17:cjc029_5236"
    INDEX 01 00:11:31
  TRACK 13 AUDIO
    TITLE "0:"
    INDEX 01 00:13:47
  TRACK 14 AUDIO
    TITLE "16:cjc029_5237"
    INDEX 01 00:13:55
  TRACK 15 AUDIO
    TITLE "0:"
    INDEX 01 00:14:68
  TRACK 16 AUDIO
    TITLE "17:cjc029_5238"
    INDEX 01 00:15:50
  TRACK 17 AUDIO
    TITLE "0:"
    INDEX 01 00:17:02
  TRACK 18 AUDIO
    TITLE "16:cjc029_5239"
    INDEX 01 00:17:06
  TRACK 19 AUDIO
    TITLE "0:"
    INDEX 01 00:18:23
  TRACK 20 AUDIO
    TITLE "17:cjc029_5240"
    INDEX 01 00:19:07
  TRACK 21 AUDIO
    TITLE "0:"
    INDEX 01 00:20:57
  TRACK 22 AUDIO
    TITLE "16:cjc029_5241"
    INDEX 01 00:20:61
  TRACK 23 AUDIO
    TITLE "0:"
    INDEX 01 00:21:62
  TRACK 24 AUDIO
    TITLE "17:cjc029_5242"
    INDEX 01 00:22:50
  TRACK 25 AUDIO
    TITLE "0:"
    INDEX 01 00:26:71
  TRACK 26 AUDIO
    TITLE "16:cjc029_5243"
    INDEX 01 00:27:02
  TRACK 27 AUDIO
    TITLE "0:"
    INDEX 01 00:28:33
  TRACK 28 AUDIO
    TITLE "17:cjc029_5244"
    INDEX 01 00:29:17
  TRACK 29 AUDIO
    TITLE "0:"
    INDEX 01 00:30:26
  TRACK 30 AUDIO
    TITLE "16:cjc029_5245"
    INDEX 01 00:30:32
  TRACK 31 AUDIO
    TITLE "0:"
    INDEX 01 00:31:47
  TRACK 32 AUDIO
    TITLE "17:cjc029_5246"
    INDEX 01 00:32:33
  TRACK 33 AUDIO
    TITLE "0:"
    INDEX 01 00:33:60
  TRACK 34 AUDIO
    TITLE "16:cjc029_5247"
    INDEX 01 00:33:66
  TRACK 35 AUDIO
    TITLE "0:"
    INDEX 01 00:35:00
  TRACK 36 AUDIO
    TITLE "17:cjc029_5248"
    INDEX 01 00:35:57
  TRACK 37 AUDIO
    TITLE "0:"
    INDEX 01 00:36:62
  TRACK 38 AUDIO
    TITLE "16:cjc029_5249"
    INDEX 01 00:36:70
  TRACK 39 AUDIO
    TITLE "0:"
    INDEX 01 00:38:06
  TRACK 40 AUDIO
    TITLE "17:cjc029_5250"
    INDEX 01 00:38:65
  TRACK 41 AUDIO
    TITLE "0:"
    INDEX 01 00:40:17
  TRACK 42 AUDIO
    TITLE "16:cjc029_5251"
    INDEX 01 00:40:23
  TRACK 43 AUDIO
    TITLE "0:"
    INDEX 01 00:41:38
  TRACK 44 AUDIO
    TITLE "17:cjc029_5252"
    INDEX 01 00:42:23
  TRACK 45 AUDIO
    TITLE "0:"
    INDEX 01 00:43:54
  TRACK 46 AUDIO
    TITLE "16:cjc029_5253"
    INDEX 01 00:43:60
  TRACK 47 AUDIO
    TITLE "0:"
    INDEX 01 00:44:60
  TRACK 48 AUDIO
    TITLE "17:cjc029_5254"
    INDEX 01 00:45:45
  TRACK 49 AUDIO
    TITLE "0:"
    INDEX 01 00:46:62
  TRACK 50 AUDIO
    TITLE "16:cjc029_5255"
    INDEX 01 00:46:64
  TRACK 51 AUDIO
    TITLE "0:"
    INDEX 01 00:48:14
  TRACK 52 AUDIO
    TITLE "17:cjc029_5256"
    INDEX 01 00:48:73
  TRACK 53 AUDIO
    TITLE "0:"
    INDEX 01 00:50:27
  TRACK 54 AUDIO
    TITLE "16:cjc029_5257"
    INDEX 01 00:50:33
  TRACK 55 AUDIO
    TITLE "0:"
    INDEX 01 00:51:42
  TRACK 56 AUDIO
    TITLE "17:cjc029_5258"
    INDEX 01 00:52:28
  TRACK 57 AUDIO
    TITLE "0:"
    INDEX 01 00:53:51
  TRACK 58 AUDIO
    TITLE "16:cjc029_5259"
    INDEX 01 00:53:55
  TRACK 59 AUDIO
    TITLE "0:"
    INDEX 01 00:54:62
  TRACK 60 AUDIO
    TITLE "17:cjc029_5260"
    INDEX 01 00:55:51
  TRACK 61 AUDIO
    TITLE "0:"
    INDEX 01 00:56:74
  TRACK 62 AUDIO
    TITLE "16:cjc029_5261"
    INDEX 01 00:57:13
  TRACK 63 AUDIO
    TITLE "0:"
    INDEX 01 00:58:15
